<?xml version="1.0" standalone="no"?>
<!DOCTYPE svg PUBLIC "-//W3C//DTD SVG 20010904//EN"
 "http://www.w3.org/TR/2001/REC-SVG-20010904/DTD/svg10.dtd">
<svg version="1.0" xmlns="http://www.w3.org/2000/svg"
 width="576.000000pt" height="576.000000pt" viewBox="0 0 576.000000 576.000000"
 preserveAspectRatio="xMidYMid meet">
<metadata>
Created by potrace 1.14, written by Peter Selinger 2001-2017
</metadata>
<g transform="translate(0.000000,576.000000) scale(0.100000,-0.100000)"
fill="#000000" stroke="none">
<path d="M2391 4945 c-114 -32 -211 -109 -258 -205 -11 -21 -23 -37 -26 -34
-3 3 -31 9 -64 14 -221 30 -429 -122 -464 -341 -9 -58 -8 -83 7 -160 5 -25 3
-26 -47 -32 -112 -14 -249 -109 -301 -210 -75 -148 -60 -330 39 -447 l27 -32
-30 -21 c-177 -125 -233 -346 -137 -539 30 -61 119 -149 175 -173 24 -10 45
-20 47 -22 2 -1 -20 -28 -49 -60 -119 -133 -158 -299 -110 -466 24 -87 55
-139 119 -204 85 -86 205 -143 303 -143 48 0 49 0 85 -57 113 -177 324 -406
488 -530 328 -247 650 -373 955 -373 260 0 452 80 623 259 94 99 147 177 212
315 121 255 185 566 191 936 2 163 6 196 28 275 14 50 29 120 32 157 6 64 9
69 41 88 33 19 34 22 31 72 l-3 52 -90 16 c-110 20 -144 39 -143 82 1 19 -6
36 -17 45 -18 12 -16 19 38 126 56 111 116 277 142 392 35 153 27 274 -22 374
-39 80 -144 181 -215 211 -32 13 -58 28 -58 34 0 28 -54 121 -96 166 -86 92
-199 137 -327 127 l-68 -4 -34 51 c-32 49 -77 91 -135 127 -107 67 -308 66
-410 -3 l-33 -23 -61 61 c-45 45 -77 67 -121 83 -77 30 -191 36 -264 16z
m1376 -1701 c-1 -2 -38 -10 -81 -19 -89 -19 -153 -41 -178 -63 -25 -21 -22
-58 4 -76 22 -16 22 -16 3 -31 -29 -21 -167 -20 -201 1 l-25 17 21 14 c36 25
23 64 -30 90 -86 41 -184 58 -337 58 -128 0 -144 -2 -170 -21 -19 -15 -29 -31
-31 -55 -4 -45 -24 -57 -130 -75 -48 -9 -89 -19 -92 -24 -7 -11 -394 -78 -398
-69 -5 13 43 82 93 132 50 51 125 93 210 120 103 33 201 39 465 32 279 -8 431
4 660 49 l115 23 52 -51 c29 -27 51 -51 50 -52z m-1225 -306 c32 -21 34 -28
50 -123 21 -125 53 -226 93 -284 22 -34 47 -54 97 -80 89 -45 177 -52 275 -23
178 55 237 143 307 465 6 24 10 27 50 27 l45 0 11 -57 c6 -32 20 -88 31 -124
l19 -67 -25 -93 c-30 -114 -36 -259 -11 -307 8 -16 38 -48 66 -72 56 -47 66
-84 31 -119 -28 -28 -114 -51 -188 -51 -50 0 -67 -4 -83 -20 -26 -26 -25 -36
5 -56 21 -13 39 -15 98 -10 187 18 267 77 267 199 0 50 -21 84 -74 116 -49 31
-60 66 -53 169 10 138 10 138 66 82 101 -101 269 -126 419 -64 17 8 16 -160
-3 -316 -98 -791 -479 -1184 -1051 -1085 -440 77 -920 423 -1187 856 -26 43
-54 80 -63 83 -9 3 -41 6 -72 6 -107 0 -188 36 -264 118 -63 67 -91 145 -91
247 -1 128 51 229 152 296 54 36 162 69 223 69 l45 0 100 -237 c98 -233 116
-264 144 -236 4 4 13 91 19 193 12 208 21 271 56 380 l24 77 197 30 c245 38
235 38 275 11z"/>
<path d="M1537 2472 c-22 -24 -20 -71 6 -161 16 -54 29 -79 50 -95 26 -19 30
-19 55 -5 17 9 28 25 30 43 4 32 -24 158 -44 197 -21 42 -69 52 -97 21z"/>
<path d="M3075 1753 c-16 -2 -91 -13 -165 -24 -200 -31 -209 -46 -94 -168 92
-98 161 -135 277 -151 179 -23 379 -4 465 46 54 31 164 139 186 182 12 24 13
33 3 46 -34 47 -481 93 -672 69z m459 -97 c48 -8 91 -18 95 -21 10 -11 -108
-113 -139 -120 -16 -3 -52 1 -82 10 -95 29 -201 30 -301 5 -106 -26 -119 -23
-198 52 l-54 51 40 9 c169 38 457 44 639 14z m-199 -153 l40 -7 -30 -7 c-42
-9 -146 -10 -186 -2 l-34 7 35 7 c50 9 128 10 175 2z"/>
</g>
</svg>
